<svg data-v-0dd9719b="" version="1.0" xmlns="http://www.w3.org/2000/svg" xmlns:xlink="http://www.w3.org/1999/xlink" width="100%" height="100%" viewBox="0 0 340.000000 250.000000" preserveAspectRatio="xMidYMid meet" color-interpolation-filters="sRGB" style="margin: auto;"> <rect data-v-0dd9719b="" x="0" y="0" width="100%" height="100%" fill="#fff" fill-opacity="1" class="background"></rect> <rect data-v-0dd9719b="" x="0" y="0" width="100%" height="100%" fill="url(#watermark)" fill-opacity="1" class="watermarklayer"></rect> <g data-v-0dd9719b="" fill="#0083ce" class="icon-text-wrapper icon-svg-group iconsvg" transform="translate(48.839996337890625,94.82468223945176)"><g class="iconsvg-imagesvg" transform="translate(0,0)"><g><rect fill="#0083ce" fill-opacity="0" stroke-width="2" x="0" y="0" width="60" height="60.350637202144455" class="image-rect"></rect> <svg x="0" y="0" width="60" height="60.350637202144455" filtersec="colorsb4076765734" class="image-svg-svg primary" style="overflow: visible;"><svg xmlns="http://www.w3.org/2000/svg" viewBox="-9.5367431640625e-7 0.049999237060546875 59.86000061035156 60.209999084472656"><g><g><path d="M17.46 25.44a3.51 3.51 0 0 1-2-6.55 31.91 31.91 0 0 1-.46-3.73l-15 15 10 10a30.47 30.47 0 0 1 9.71.27A30.91 30.91 0 0 1 22 32.71a30.77 30.77 0 0 1-4.54-7.27z" fill="#0083ce"></path><path d="M19.49 41.87a28.93 28.93 0 0 0-8.14-.39l8.31 8.31a30.49 30.49 0 0 1-.17-7.92z" fill="#0b318f"></path><path d="M20.54 20.9a3.51 3.51 0 0 1-1.6 4.1 28.58 28.58 0 0 0 3.75 6.22A30.2 30.2 0 0 1 34 19.08a3.51 3.51 0 0 1 6.24-2.85 29.69 29.69 0 0 1 4.93-1.18l-15-15-13.72 13.64a27.38 27.38 0 0 0 .46 4.75 3.51 3.51 0 0 1 3.63 2.46zM23.08 34a28.87 28.87 0 0 0-1.9 6.69 31 31 0 0 1 5.92 2.11 3.52 3.52 0 0 1 5.82 3.63A30.41 30.41 0 0 1 38.37 52l8.4-8.38A30.53 30.53 0 0 1 23.08 34z" fill="#00a0e9"></path><path d="M46.13 16.4a29 29 0 0 0-5.67 1.21 3.5 3.5 0 0 1-6.22 2.86 28.79 28.79 0 0 0-10.89 12A28.94 28.94 0 0 0 48 42l11.86-11.88z" fill="#0b318f"></path><path d="M32.1 47.71a3.51 3.51 0 0 1-5.82-3.62 29 29 0 0 0-5.3-1.9 28.38 28.38 0 0 0 .62 9.52l8.53 8.55 7.15-7.15a28.12 28.12 0 0 0-5.18-5.4z" fill="#0083ce"></path></g></g></svg></svg> <!----></g></g> <g transform="translate(67,9.255317687988281)"><g data-gra="path-name" fill-rule="" class="tp-name iconsvg-namesvg"><g transform="scale(1)"><g><path d="M1.06-10.06Q2.01-6.39 3.65-4.02 5.28-1.66 7.69 0.05L7.69 0.05Q12.82 3.42 19.72 3.52L19.72 3.52Q27.06 3.42 31.89 0L31.89 0Q34.1-1.71 35.33-4.12 36.56-6.54 36.61-9.25L36.61-9.25Q36.51-11.01 35.86-12.67L35.86-12.67Q33.85-16.9 27.51-19.66L27.51-19.66Q24.29-21.12 20.37-22.33L20.37-22.33Q16.75-23.39 14.94-24.44L14.94-24.44Q13.78-25.2 13.78-26.45L13.78-26.45Q13.78-27.01 14.06-27.54 14.33-28.06 14.84-28.42L14.84-28.42Q16.45-29.32 18.21-29.27L18.21-29.27Q20.27-29.37 22.18-28.52L22.18-28.52Q23.79-27.66 24.84-26.25L24.84-26.25 36.16-26.25Q35.26-29.62 33.75-31.76 32.24-33.9 29.97-35.41L29.97-35.41Q25.3-38.22 18.71-38.32L18.71-38.32Q11.87-38.22 6.79-34.65L6.79-34.65Q4.38-32.79 3.12-30.18L3.12-30.18Q2.21-27.86 2.21-25.75L2.21-25.75Q2.21-23.49 3.27-21.42L3.27-21.42Q4.12-19.92 5.53-18.66L5.53-18.66Q9.91-15.09 18.56-12.52L18.56-12.52Q21.93-11.42 23.49-10.51L23.49-10.51Q25-9.56 25.05-8.5L25.05-8.5Q24.95-7.14 23.51-6.29 22.08-5.43 20.12-5.53L20.12-5.53Q17.55-5.43 15.59-6.69L15.59-6.69Q13.83-7.9 12.62-10.06L12.62-10.06 1.06-10.06ZM42.4 2.72L52.71 2.72 52.71-37.52 42.4-37.52 42.4 2.72ZM57.38-10.06Q58.34-6.39 59.97-4.02 61.61-1.66 64.02 0.05L64.02 0.05Q69.15 3.42 76.04 3.52L76.04 3.52Q83.39 3.42 88.21 0L88.21 0Q90.43-1.71 91.66-4.12 92.89-6.54 92.94-9.25L92.94-9.25Q92.84-11.01 92.19-12.67L92.19-12.67Q90.18-16.9 83.84-19.66L83.84-19.66Q80.62-21.12 76.7-22.33L76.7-22.33Q73.08-23.39 71.27-24.44L71.27-24.44Q70.11-25.2 70.11-26.45L70.11-26.45Q70.11-27.01 70.39-27.54 70.66-28.06 71.17-28.42L71.17-28.42Q72.77-29.32 74.53-29.27L74.53-29.27Q76.6-29.37 78.51-28.52L78.51-28.52Q80.12-27.66 81.17-26.25L81.17-26.25 92.49-26.25Q91.58-29.62 90.08-31.76 88.57-33.9 86.3-35.41L86.3-35.41Q81.63-38.22 75.04-38.32L75.04-38.32Q68.2-38.22 63.12-34.65L63.12-34.65Q60.7-32.79 59.45-30.18L59.45-30.18Q58.54-27.86 58.54-25.75L58.54-25.75Q58.54-23.49 59.6-21.42L59.6-21.42Q60.45-19.92 61.86-18.66L61.86-18.66Q66.24-15.09 74.89-12.52L74.89-12.52Q78.26-11.42 79.82-10.51L79.82-10.51Q81.32-9.56 81.37-8.5L81.37-8.5Q81.27-7.14 79.84-6.29 78.41-5.43 76.45-5.53L76.45-5.53Q73.88-5.43 71.92-6.69L71.92-6.69Q70.16-7.9 68.95-10.06L68.95-10.06 57.38-10.06ZM98.73 2.72L109.04 2.72 109.04-12.88 123.62-12.88 123.62 2.72 133.93 2.72 133.93-37.52 123.62-37.52 123.62-21.93 109.04-21.93 109.04-37.52 98.73-37.52 98.73 2.72ZM141.17-13.83Q141.17-8.3 143.31-4.4 145.45-0.5 149.4 1.51 153.34 3.52 158.78 3.52L158.78 3.52Q167.12 3.52 171.68-0.93 176.23-5.38 176.38-13.83L176.38-13.83 176.38-37.52 166.07-37.52 166.07-13.83Q166.07-9.71 164.23-7.57 162.4-5.43 158.78-5.53L158.78-5.53Q155.26-5.48 153.32-7.75 151.38-10.01 151.48-13.83L151.48-13.83 151.48-37.52 141.17-37.52 141.17-13.83Z" transform="translate(-1.059999942779541, 38.31999969482422)"></path></g> <!----> <!----> <!----> <!----> <!----> <!----> <!----></g></g> <!----></g></g><defs v-gra="od"></defs></svg>